<svg id="Layer_1" data-name="Layer 1" xmlns="http://www.w3.org/2000/svg" viewBox="0 0 565 565"><defs><style>.cls-1{fill:#fff;}.cls-2{fill:#f15a24;}.cls-3{fill:#8a0055;}</style></defs><title>logoDice_1</title><rect class="cls-1" x="2.5" y="2.5" width="560" height="560" rx="53.32"/><path d="M1133.18,166A50.88,50.88,0,0,1,1184,216.82V670.18A50.88,50.88,0,0,1,1133.18,721H679.82A50.88,50.88,0,0,1,629,670.18V216.82A50.88,50.88,0,0,1,679.82,166h453.36m0-5H679.82A55.82,55.82,0,0,0,624,216.82V670.18A55.82,55.82,0,0,0,679.82,726h453.36A55.82,55.82,0,0,0,1189,670.18V216.82A55.82,55.82,0,0,0,1133.18,161Z" transform="translate(-624 -161)"/><circle class="cls-2" cx="126.5" cy="427.5" r="48"/><path class="cls-3" d="M750.5,541A47.5,47.5,0,1,1,703,588.5,47.56,47.56,0,0,1,750.5,541m0-1A48.5,48.5,0,1,0,799,588.5,48.49,48.49,0,0,0,750.5,540Z" transform="translate(-624 -161)"/><circle class="cls-2" cx="126.5" cy="110.5" r="48"/><path class="cls-3" d="M750.5,224A47.5,47.5,0,1,1,703,271.5,47.56,47.56,0,0,1,750.5,224m0-1A48.5,48.5,0,1,0,799,271.5,48.49,48.49,0,0,0,750.5,223Z" transform="translate(-624 -161)"/><circle class="cls-2" cx="425.5" cy="110.5" r="48"/><path class="cls-3" d="M1049.5,224a47.5,47.5,0,1,1-47.5,47.5,47.56,47.56,0,0,1,47.5-47.5m0-1a48.5,48.5,0,1,0,48.5,48.5,48.49,48.49,0,0,0-48.5-48.5Z" transform="translate(-624 -161)"/><circle class="cls-2" cx="425.5" cy="427.5" r="48"/><path class="cls-3" d="M1049.5,541a47.5,47.5,0,1,1-47.5,47.5,47.56,47.56,0,0,1,47.5-47.5m0-1a48.5,48.5,0,1,0,48.5,48.5,48.49,48.49,0,0,0-48.5-48.5Z" transform="translate(-624 -161)"/><circle class="cls-2" cx="282.5" cy="282.5" r="48"/><path class="cls-3" d="M906.5,396A47.5,47.5,0,1,1,859,443.5,47.56,47.56,0,0,1,906.5,396m0-1A48.5,48.5,0,1,0,955,443.5,48.49,48.49,0,0,0,906.5,395Z" transform="translate(-624 -161)"/></svg>